# xmcd
#
# Track frame offsets: 
#        150
#        16940
#        39385
#        67567
#        87745
#        108780
#        132112
#        152930
#        171287
#        203920
#        220090
#        252775
#
# Disc length: 3892 seconds
#
# Revision: 1
# Processed by: cddbd v1.5.2PL0 Copyright (c) Steve Scherf et al.
# Submitted via: ExactAudioCopy v1.0b1
#
DISCID=980f320c
DTITLE=Luther "Guitar Junior" Johnson And The Magic Rockers - Got To F
DTITLE=ind A Way
DYEAR=1998
DGENRE=Blues
TTITLE0=On Your Way Fishin'
TTITLE1=Got To Find A Way
TTITLE2=Luther's Blues
TTITLE3=Home Alone
TTITLE4=You Ought To Be Ashamed
TTITLE5=So Mean To Me
TTITLE6=I Pity The Fool
TTITLE7=Just Like Mama Said
TTITLE8=I Gotta Move Out Of My Neighborhood
TTITLE9=I Got The Blues
TTITLE10=Talkin' On My Phone
TTITLE11=Enhanced Track
EXTD=ID3G: 0
EXTT0=
EXTT1=
EXTT2=
EXTT3=
EXTT4=
EXTT5=
EXTT6=
EXTT7=
EXTT8=
EXTT9=
EXTT10=
EXTT11=
PLAYORDER=
